<?xml version="1.0" standalone="no"?>
<!DOCTYPE svg PUBLIC "-//W3C//DTD SVG 20010904//EN"
 "http://www.w3.org/TR/2001/REC-SVG-20010904/DTD/svg10.dtd">
<svg version="1.0" xmlns="http://www.w3.org/2000/svg"
 width="300.000000pt" height="438.000000pt" viewBox="0 0 300.000000 438.000000"
 preserveAspectRatio="xMidYMid meet">
<metadata>
Created by potrace 1.10, written by Peter Selinger 2001-2011
</metadata>
<g transform="translate(0.000000,438.000000) scale(0.100000,-0.100000)"
fill="#000000" stroke="none">
<path d="M775 3873 c-105 -23 -208 -83 -262 -151 -36 -47 -86 -142 -108 -207
-51 -153 -71 -419 -40 -540 49 -190 184 -317 393 -370 46 -12 71 -14 95 -6 18
5 57 12 88 16 103 11 224 61 266 108 20 23 24 24 -80 -27 l-79 -39 -165 2
c-157 2 -170 4 -242 31 -126 49 -175 107 -232 275 -21 62 -24 88 -24 225 0
131 4 169 24 245 26 101 61 176 116 250 47 64 93 96 174 124 178 61 367 41
507 -54 41 -28 110 -112 101 -122 -4 -3 2 -21 13 -38 52 -83 81 -178 87 -275
8 -142 -29 -326 -88 -443 -25 -49 -19 -59 10 -15 11 18 21 27 21 19 0 -8 -7
-23 -17 -33 -9 -10 -13 -21 -9 -25 20 -21 65 111 88 257 10 69 23 146 29 171
14 63 21 192 11 185 -5 -3 -9 8 -9 23 0 33 -50 119 -102 174 -20 21 -37 47
-37 58 -2 24 -53 77 -98 101 -42 22 -99 49 -111 52 -5 2 -17 6 -25 9 -64 24
-229 35 -295 20z"/>
<path d="M1990 3274 c-79 -15 -215 -78 -262 -122 -16 -14 -28 -21 -28 -15 0 6
22 28 50 49 51 39 61 60 14 30 -55 -36 -104 -90 -125 -134 -12 -26 -25 -54
-29 -63 -4 -8 -6 -29 -4 -45 4 -24 3 -25 -5 -9 -13 29 -6 -188 8 -250 15 -66
41 -136 58 -156 7 -8 13 -17 13 -20 0 -2 -43 -2 -96 0 -53 1 -99 -1 -103 -6
-3 -5 -40 -15 -81 -21 -41 -7 -113 -19 -160 -27 -99 -17 -143 -19 -120 -6 8 5
65 17 125 26 258 40 169 43 -120 4 -251 -34 -564 -119 -596 -162 -8 -11 -186
-87 -203 -87 -17 0 -122 -94 -137 -121 -8 -15 -6 -17 7 -12 16 6 16 4 1 -23
-9 -16 -28 -96 -43 -179 -31 -166 -36 -351 -22 -687 8 -184 16 -245 30 -254 7
-4 7 6 2 27 -11 45 -6 585 7 719 14 154 37 297 50 323 28 53 93 129 127 151
105 66 358 159 434 159 21 0 38 3 38 8 0 5 7 5 17 2 10 -4 14 -2 10 4 -4 7 6
16 25 22 45 16 70 12 28 -4 -19 -7 -27 -14 -18 -14 9 -1 28 3 43 9 41 16 289
48 420 55 66 3 315 8 554 11 338 3 474 1 615 -11 207 -18 236 -25 271 -66 32
-39 32 -65 -3 -120 -52 -81 -141 -110 -387 -124 -49 -3 -139 -12 -200 -20
-203 -26 -290 -35 -410 -41 -112 -5 -238 4 -277 20 -33 15 -38 -25 -44 -401
-6 -312 -4 -382 9 -459 9 -49 19 -134 23 -187 4 -54 11 -100 15 -103 5 -3 9 4
9 15 0 11 5 23 10 26 17 11 11 216 -10 342 -12 65 -20 127 -19 138 1 11 -1 45
-5 76 -5 34 -2 121 8 225 9 93 16 192 16 220 l0 51 343 6 c349 7 593 25 705
52 82 20 191 75 242 124 23 22 39 33 36 25 -18 -43 -17 -47 3 -22 12 15 26 41
32 58 6 16 14 28 19 25 4 -3 8 14 8 38 1 44 -34 131 -48 122 -5 -3 -25 6 -46
20 -37 25 -64 32 -64 17 0 -5 18 -17 40 -27 22 -10 40 -22 40 -27 0 -11 -1
-11 -52 12 -49 21 -156 39 -250 42 -32 1 -58 3 -58 5 0 2 15 17 33 33 19 16
49 58 68 92 32 60 34 68 34 163 0 99 0 101 -48 197 -60 121 -128 193 -230 245
-70 35 -76 37 -192 39 -66 1 -131 0 -145 -2z m270 -54 c165 -55 247 -140 295
-305 22 -73 16 -140 -20 -225 -33 -79 -67 -122 -119 -151 -40 -22 -46 -23
-319 -21 -205 2 -282 6 -291 15 -16 16 -76 125 -76 138 0 6 6 7 13 3 7 -4 9
-3 4 2 -5 5 -14 9 -20 9 -7 0 -12 7 -13 15 0 8 -4 22 -7 30 -31 73 -57 164
-57 196 0 51 48 152 100 207 34 38 54 49 123 70 45 15 93 28 107 31 43 8 244
-2 280 -14z m-590 -507 c0 -13 86 -181 101 -198 17 -18 9 -22 -33 -19 -50 4
-53 7 -39 32 8 16 7 31 -7 64 -10 24 -24 66 -31 93 -7 28 -15 57 -17 65 -3 10
1 8 11 -4 8 -11 15 -26 15 -33z m-100 -203 c0 -5 -13 -10 -30 -10 -16 0 -30 5
-30 10 0 6 14 10 30 10 17 0 30 -4 30 -10z m-540 -50 c0 -11 -48 -25 -57 -16
-3 3 5 10 18 15 32 13 39 13 39 1z m1815 -70 c20 -39 20 -57 0 -40 -8 7 -12
17 -9 22 3 5 -2 18 -12 29 -9 10 -12 19 -6 19 6 0 18 -13 27 -30z"/>
<path d="M1230 2713 c-14 -15 -49 -37 -77 -49 -53 -24 -74 -42 -28 -24 49 19
100 48 119 69 28 31 15 34 -14 4z"/>
<path d="M2763 2152 c-8 -5 -4 -33 16 -103 35 -119 45 -189 77 -514 13 -143
29 -287 34 -320 4 -33 13 -91 19 -130 6 -38 12 -89 13 -113 2 -23 8 -42 13
-42 15 0 18 73 5 149 -6 36 -17 145 -25 241 -29 350 -78 688 -116 808 -11 33
-16 37 -36 24z"/>
<path d="M516 1793 c-37 -112 -46 -226 -35 -417 6 -100 9 -227 7 -284 -2 -56
0 -102 4 -102 20 0 30 98 29 281 -2 178 11 454 25 537 8 49 -12 38 -30 -15z"/>
<path d="M2570 1285 c0 -109 57 -365 81 -365 6 0 5 8 -1 20 -8 15 -8 20 1 20
16 0 6 130 -17 230 -9 41 -22 97 -28 124 -19 84 -36 70 -36 -29z"/>
</g>
</svg>
