<svg xmlns="http://www.w3.org/2000/svg" xml:space="preserve" width="" height="" data-id="lg_M4q1XwdYHKPqJ53UZa" data-version="1" viewBox="0 0 1500 1500"><path fill="#b4ddcf" stroke="transparent" d="M0 0h1500v1500H0z"/><g data-padding="20"><g transform="translate(-580.935 -589.055)scale(1.73386)"><rect width="556.093" height="218.09" x="89.8" y="263.786" fill="none" rx="0" ry="0" transform="translate(399.75 355.83)"/><path fill="#013c38" d="m491.727 707.53 12.74-12.36v-43.5l-14.55-14.16h35.35l24.47 37.69 22.02-37.69h37.55l-15.24 11.91v45.71l14.21 12.4h-52.64l13.68-12.4v-25.25l-21 37.65h-7.08l-23.49-37.26v24.9l14.7 12.36Z"/><path fill="#013c38" d="m609.587 706.21 19.05-1.95q-.59 2.14-.59 4.2 0 2.34.63 4.46.64 2.13 2.06 3.74 1.41 1.61 3.63 2.56t5.45.95q2.68 0 4.73-1.05t3.59-2.78 2.59-4.03q1.05-2.29 1.69-4.78h-15.48l-18.85-43.46-12.45-10.59h43.41l-5.72 8.1 11.72 35.55 9.72-35.21-5.91-8.44h35.6l-11.48 9.42-16.31 44.63q-2.58 7.13-5.76 11.64-3.17 4.52-7.01 7.08-3.83 2.57-8.35 3.52-4.51.95-9.83.95-6.35 0-11.31-1.39-4.95-1.39-8.37-3.96-3.42-2.56-5.2-6.2-1.78-3.63-1.78-8.18 0-1.12.17-2.44t.36-2.34m107.37-33.69q0-6.5 1.9-11.77t5.27-9.37q3.37-4.11 7.96-7.06t9.99-4.88q5.39-1.93 11.35-2.86t12.06-.93q4.49 0 8.5.54 4 .54 7.49 1.44t6.42 2.08q2.93 1.17 5.28 2.44l3.56-4.64h10.21v24.8l-12.94 2.44q-1.18-3.95-3.47-7.37-2.3-3.42-5.52-5.91t-7.3-3.93-8.86-1.44q-6.15 0-10.55 2.18-4.39 2.17-7.2 5.81-2.81 3.63-4.13 8.42-1.31 4.78-1.31 10.01 0 6.39 1.88 11.33 1.88 4.93 5.24 8.27 3.37 3.35 7.99 5.06 4.61 1.71 10.13 1.71 4.3 0 8.11-1.1 3.8-1.1 6.71-3.37 2.9-2.27 4.74-5.74 1.83-3.47 2.22-8.2h14.94q0 4.64-1.49 8.59-1.49 3.96-4.2 7.18t-6.52 5.69q-3.81 2.46-8.49 4.12-4.69 1.66-10.09 2.52-5.39.85-11.3.85-5.57 0-11.35-.75-5.79-.76-11.19-2.47-5.39-1.71-10.13-4.52-4.73-2.8-8.27-6.91-3.54-4.1-5.59-9.62-2.05-5.51-2.05-12.64m96.08 22.41q0-3.91 1.61-6.76 1.62-2.86 4.35-4.89 2.73-2.02 6.4-3.29 3.66-1.27 7.76-1.98t8.42-.98q4.32-.26 8.43-.26 2.29 0 4.85.07 2.57.07 5.16.17-.1-3.52-.61-6.27-.52-2.76-1.71-4.64-1.2-1.88-3.32-2.88-2.13-1-5.45-1-2.15 0-4.25.53-2.1.54-3.8 1.71-1.71 1.17-2.91 3-1.2 1.84-1.54 4.47l-19.58-2.68q0-3.32 1.34-5.94 1.35-2.61 3.69-4.59 2.35-1.97 5.54-3.34 3.2-1.37 6.89-2.2 3.68-.83 7.71-1.22t8.04-.39q4.83 0 9.25.42 4.42.41 8.23 1.49 3.8 1.07 6.9 2.88 3.11 1.8 5.3 4.59 2.2 2.78 3.4 6.64 1.19 3.85 1.19 8.98v17.19q0 3.9 1.93 5.47 1.93 1.56 5.25 1.56v5.61q-.44.44-1.49.96-1.05.51-2.73.97-1.69.47-3.98.78-2.3.32-5.28.32-3.61 0-6.49-.36-2.88-.37-5.01-1.27-2.12-.91-3.54-2.47-1.41-1.56-2.14-3.95-2.45 2.14-5.52 3.66-3.08 1.51-6.52 2.49-3.44.97-7.08 1.44-3.64.46-7.15.46-2.35 0-4.84-.24-2.49-.25-4.88-.86t-4.54-1.66-3.76-2.66-2.56-3.86q-.96-2.24-.96-5.22m25.25-2.15q0 1.32.68 2.39.68 1.08 1.86 1.81 1.17.73 2.73 1.12t3.32.39q1.81 0 4.01-.41 2.19-.42 4.17-1.39 1.98-.98 3.39-2.57 1.42-1.58 1.61-3.88v-4.98q-.68-.05-1.29-.05h-1.15q-5.22 0-8.88.52-3.67.51-5.98 1.49-2.32.97-3.4 2.39-1.07 1.41-1.07 3.17m54.34 14.75 12.74-11.92v-29.73l-12.79-10.94 36.08-1.46v10.35q1.91-3.03 4.37-5.33 2.47-2.29 5.28-3.83 2.8-1.54 5.86-2.32 3.05-.78 6.12-.78 4.06 0 7.01 1.37t4.86 3.83q1.9 2.47 2.83 5.84t.93 7.32q0 1.27-.1 2.59t-.39 2.59l-17.82 1.61q.19-.78.22-1.49.02-.71.02-1.39 0-2.01-.46-3.67-.47-1.66-1.37-2.85-.9-1.2-2.29-1.86-1.4-.66-3.25-.66-1.95 0-3.57.78-1.61.79-2.92 2.1-1.32 1.32-2.32 3.06-1.01 1.73-1.66 3.61-.66 1.88-1.01 3.78-.34 1.91-.34 3.57v13.43l17 12.4Zm74.16-26.22q0-5.96 1.74-10.5 1.73-4.54 4.68-7.84 2.96-3.29 6.89-5.49t8.37-3.52q4.45-1.31 9.16-1.85t9.15-.54q7.08 0 13.21 1.56 6.13 1.57 10.62 5.03 4.49 3.47 7.06 9.11 2.56 5.64 2.56 13.74h-47.71q.2 5.08 1.74 8.38 1.54 3.29 3.98 5.22t5.56 2.71q3.13.78 6.45.78 2.98 0 6.44-.34 3.47-.34 6.94-1.29 3.46-.95 6.64-2.61 3.17-1.66 5.52-4.35l4.98 3.91q-1.22 2.98-3.42 5.32t-5.03 4.12q-2.83 1.79-6.13 3.03-3.29 1.25-6.76 2.03t-6.93 1.15q-3.47.36-6.65.36-8.93 0-16.13-1.85-7.21-1.86-12.31-5.45t-7.86-8.84q-2.76-5.24-2.76-11.98m26.13-7.91h23.68q0-3.62-.66-6.08-.66-2.47-1.98-3.98-1.32-1.52-3.3-2.17-1.97-.66-4.61-.66-5.57 0-8.84 3.37-3.27 3.36-4.29 9.52m-450.5 139.22 14.36-12.26 23-45.8-10.5-11.96h57.22l-8.83 12.4 20.6 45.26 12.84 12.36h-51.27l10.65-12.26-2.1-5.12h-32.23l-2.29 5.12 14.01 12.26Zm38.33-27.59h23.54l-11.18-27.54Zm72.75 28.86V792.7q3.71 2.44 7.98 4.51 4.28 2.08 8.87 3.62 4.59 1.53 9.37 2.41 4.79.88 9.57.88 1.81 0 3.59-.24 1.78-.25 3.17-.76 1.4-.51 2.25-1.37.85-.85.85-2.07 0-1.03-.65-1.83-.66-.81-2.52-1.49-1.85-.69-5.2-1.22-3.34-.54-8.72-.98-3.61-.29-7.27-.76-3.66-.46-7.06-1.29-3.39-.83-6.34-2.15-2.96-1.32-5.13-3.25-2.17-1.92-3.44-4.61t-1.27-6.3q0-4.69 2.24-8.25 2.25-3.56 6.08-5.98 3.84-2.42 8.91-3.66 5.08-1.25 10.75-1.25 6.1 0 12.08 1.44t11.84 4.13l12.79-5.28v19.34q-4.05-2.39-8.37-4.22t-8.59-3.06q-4.28-1.22-8.35-1.83-4.08-.61-7.6-.61-2.34 0-4.24.34-1.91.35-3.3.93-1.39.59-2.15 1.37-.75.78-.75 1.66t.65 1.56q.66.69 2.64 1.3t5.62 1.17q3.63.56 9.54 1.15 5.81.58 11.16 1.73t9.45 3.22q4.1 2.08 6.54 5.37 2.44 3.3 2.44 8.23 0 3.56-1.29 6.45-1.3 2.88-3.49 5.07-2.2 2.2-5.13 3.79-2.93 1.58-6.23 2.61-3.29 1.03-6.76 1.51-3.47.49-6.74.49-6.44 0-12.74-1.61t-12.26-4.74Zm76.69 0V792.7q3.71 2.44 7.99 4.51 4.27 2.08 8.86 3.62 4.59 1.53 9.37 2.41 4.79.88 9.57.88 1.81 0 3.59-.24 1.79-.25 3.18-.76t2.24-1.37q.86-.85.86-2.07 0-1.03-.66-1.83-.66-.81-2.52-1.49-1.85-.69-5.2-1.22-3.34-.54-8.71-.98-3.61-.29-7.28-.76-3.66-.46-7.05-1.29-3.4-.83-6.35-2.15t-5.13-3.25q-2.17-1.92-3.44-4.61t-1.27-6.3q0-4.69 2.25-8.25 2.24-3.56 6.08-5.98 3.83-2.42 8.91-3.66 5.08-1.25 10.74-1.25 6.1 0 12.08 1.44 5.99 1.44 11.85 4.13l12.79-5.28v19.34q-4.05-2.39-8.38-4.22-4.32-1.83-8.59-3.06-4.27-1.22-8.35-1.83t-7.59-.61q-2.35 0-4.25.34-1.9.35-3.3.93-1.39.59-2.14 1.37-.76.78-.76 1.66t.66 1.56q.66.69 2.63 1.3 1.98.61 5.62 1.17t9.55 1.15q5.81.58 11.15 1.73 5.35 1.15 9.45 3.22 4.1 2.08 6.54 5.37 2.45 3.3 2.45 8.23 0 3.56-1.3 6.45-1.29 2.88-3.49 5.07-2.2 2.2-5.13 3.79-2.93 1.58-6.22 2.61-3.3 1.03-6.76 1.51-3.47.49-6.74.49-6.45 0-12.75-1.61t-12.25-4.74Zm93.47-61.57q-2.64 0-4.96-1.01-2.32-1-4.03-2.71-1.71-1.7-2.71-4.02t-1-4.96 1-4.96 2.71-4.05 4.03-2.73 4.96-1q2.63 0 4.95 1t4.05 2.73q1.74 1.73 2.74 4.05t1 4.96-1 4.96-2.74 4.02q-1.73 1.71-4.05 2.71-2.32 1.01-4.95 1.01m-23.54 60.3 13.23-11.92v-29.73l-12.79-10.94 35.6-1.46v42.13l13.23 11.92Zm53.9 1.27V792.7q3.71 2.44 7.98 4.51 4.28 2.08 8.87 3.62 4.59 1.53 9.37 2.41 4.79.88 9.57.88 1.81 0 3.59-.24 1.78-.25 3.17-.76 1.4-.51 2.25-1.37.86-.85.86-2.07 0-1.03-.66-1.83-.66-.81-2.52-1.49-1.85-.69-5.2-1.22-3.34-.54-8.71-.98-3.62-.29-7.28-.76-3.66-.46-7.06-1.29-3.39-.83-6.34-2.15-2.96-1.32-5.13-3.25-2.17-1.92-3.44-4.61t-1.27-6.3q0-4.69 2.24-8.25 2.25-3.56 6.08-5.98 3.84-2.42 8.91-3.66 5.08-1.25 10.75-1.25 6.1 0 12.08 1.44t11.84 4.13l12.8-5.28v19.34q-4.06-2.39-8.38-4.22t-8.59-3.06q-4.27-1.22-8.35-1.83t-7.59-.61q-2.35 0-4.25.34-1.91.35-3.3.93-1.39.59-2.15 1.37-.75.78-.75 1.66t.66 1.56q.65.69 2.63 1.3t5.62 1.17q3.63.56 9.54 1.15 5.81.58 11.16 1.73t9.45 3.22q4.1 2.08 6.54 5.37 2.44 3.3 2.44 8.23 0 3.56-1.29 6.45-1.3 2.88-3.49 5.07-2.2 2.2-5.13 3.79-2.93 1.58-6.22 2.61-3.3 1.03-6.77 1.51-3.46.49-6.74.49-6.44 0-12.74-1.61t-12.26-4.74Zm79.29-22.61v-22.75h-8.4v-7.57q3.47 0 6.5-1t5.59-2.71 4.59-3.98 3.44-4.79q1.42-2.51 2.17-5.12.76-2.62.76-5.06h9.62v20.27h23.97v9.96h-23.97v21.92q0 4.54 1.1 7.23 1.1 2.68 2.83 4.05t3.81 1.76q2.07.39 4.03.39 4.98 0 7.88-2.86 2.91-2.86 2.91-8.76v-.93q0-.49-.1-1.03l8.4 2.49q.15 1.32.15 2.49 0 3.57-1.13 6.4-1.12 2.83-3.07 4.96-1.96 2.12-4.62 3.63-2.66 1.52-5.69 2.45-3.02.92-6.29 1.36-3.28.44-6.5.44-6.4 0-11.57-1.27-5.18-1.27-8.81-4.05-3.64-2.78-5.62-7.2t-1.98-10.72"/><rect width="42.623" height="372.921" x="-271.533" y="60.417" fill="none" stroke="#013c38" stroke-width="2" rx="20" ry="20" transform="matrix(0 -1.49 1.49 0 400 520.39)"/><rect width="402.408" height="41.81" x="166.643" y="351.926" fill="none" rx="0" ry="0" transform="translate(400.5 520.69)"/><path fill="#013c38" d="M603.977 881.49v23.65h-3.04v-23.65Zm11.71 21.07v2.58h-13.84v-2.58Zm-.39-10.76v2.55h-12.62v-2.55Zm.28-10.31v2.57h-13.75v-2.57Zm11.3 24.08q-1.7 0-3.12-.28-1.41-.27-2.52-.68t-1.85-.81l-.32-3.06q1.43.85 3.36 1.49t4.21.64q2.74 0 4.05-.97t1.31-2.91v-.3q0-1.28-.51-2.09-.52-.82-1.75-1.37-1.23-.56-3.34-1.04-2.67-.63-4.27-1.49t-2.31-2.15q-.71-1.3-.71-3.22v-.17q0-2.9 1.9-4.48 1.91-1.58 5.78-1.58 2.53 0 4.32.51 1.78.52 2.91 1.15l.28 2.81q-1.32-.77-3.06-1.32-1.75-.55-4.01-.55-1.79 0-2.9.43t-1.61 1.22q-.5.8-.5 1.92v.08q0 1.15.49 1.96t1.72 1.41q1.23.59 3.5 1.14 2.61.61 4.18 1.41 1.58.79 2.29 2.07t.71 3.33v.39q0 3.2-2.06 4.86-2.06 1.65-6.17 1.65m21.26-23.58v23.15h-3.08v-23.15Zm7.08-.5v2.57h-17.24v-2.57Zm25.01 21.04v2.61h-14.65v-2.93l5.9-5.79q1.67-1.64 2.84-2.96 1.18-1.31 1.81-2.57.62-1.26.62-2.68v-.19q0-1.35-.51-2.31-.52-.96-1.58-1.46-1.05-.5-2.72-.5-1.85 0-3.44.59t-2.83 1.37l.3-2.77q.7-.45 1.66-.87.97-.43 2.19-.71 1.22-.27 2.72-.27 3.66 0 5.49 1.7t1.83 4.86v.26q0 1.87-.66 3.39-.67 1.51-1.95 3.02-1.27 1.51-3.07 3.29l-4.81 4.75v.72l-1.25-.55Zm11.9 3.05q-4.22 0-6.36-2.37-2.13-2.37-2.13-6.82v-6.15q0-4.46 2.12-6.82 2.13-2.37 6.37-2.37 4.22 0 6.35 2.37 2.14 2.36 2.14 6.82v6.15q0 4.45-2.14 6.82-2.13 2.37-6.35 2.37m0-2.57q2.74 0 4.06-1.68 1.32-1.67 1.32-4.82v-6.38q0-3.16-1.32-4.84-1.32-1.67-4.06-1.67t-4.06 1.67q-1.33 1.68-1.33 4.84v6.38q0 3.15 1.33 4.82 1.32 1.68 4.06 1.68m26.42-.48v2.61h-14.66v-2.93l5.91-5.79q1.66-1.64 2.84-2.96 1.17-1.31 1.8-2.57t.63-2.68v-.19q0-1.35-.52-2.31t-1.57-1.46q-1.06-.5-2.72-.5-1.85 0-3.44.59t-2.83 1.37l.29-2.77q.71-.45 1.67-.87.96-.43 2.18-.71 1.22-.27 2.72-.27 3.66 0 5.49 1.7 1.84 1.7 1.84 4.86v.26q0 1.87-.67 3.39-.67 1.51-1.94 3.02-1.28 1.51-3.07 3.29l-4.81 4.75v.72l-1.26-.55Zm17.02-21.04v23.65h-2.93v-16.27l.1-5.23h-.5l-8.18 14.08v1.4l-1.18-1.14h15.81v2.59h-17.68v-3.07l9.39-16.01Zm7.25 24.01q-.96 0-1.42-.53-.45-.53-.45-1.49v-.18q0-.95.45-1.47.46-.51 1.42-.51.94 0 1.4.51.47.52.47 1.47v.18q0 .96-.47 1.49-.46.53-1.4.53m14.19-.36v-23.65h4.66l9.6 20.35h.22l-.13-10.32v-10.03h3v23.65h-4.55l-9.71-20.52h-.22l.12 10.8v9.72Zm25.97-23.65v23.65h-3.03v-23.65Zm11.71 21.07v2.58h-13.84v-2.58Zm-.39-10.76v2.55h-12.61v-2.55Zm.28-10.31v2.57h-13.74v-2.57Zm15.6 10.05-2.7 13.6h-4.89l-4.88-23.65h3.14l3.44 17.67.65 3.4h.33l.63-3.4 3.46-17.06h4.54l3.45 17.06.63 3.4h.34l.66-3.4 3.44-17.67h3.11l-4.86 23.65h-4.85l-2.74-13.6-1.29-6.9h-.3Zm30.21 13.9q-1.21 0-2.35-.2-1.15-.21-2.07-.58l-.23-2.75q.97.44 1.97.65 1.01.22 2.07.22 2.48 0 3.42-1.15t.94-3.5V881.5h3.07v16.82q0 3.5-1.55 5.31t-5.27 1.81m19.5.11q-4.13 0-6.22-2.01-2.09-2.02-2.09-5.78v-3.21q0-3.82 1.94-5.88t5.68-2.06q2.52 0 4.2.93 1.68.94 2.54 2.66.85 1.72.85 4.1v.67q0 .59-.05 1.18-.05.6-.12 1.17h-2.76q.04-.89.05-1.68.01-.8.01-1.46 0-1.65-.53-2.79t-1.57-1.74q-1.05-.6-2.62-.6-2.33 0-3.49 1.35-1.17 1.35-1.17 3.87v1.72l.02.37v1.72q0 1.13.33 2.03.33.91 1.05 1.57.71.65 1.81 1 1.1.34 2.62.34 1.75 0 3.27-.46 1.52-.47 2.85-1.26l-.28 2.59q-1.2.76-2.79 1.21t-3.53.45m6.1-10.49v2.26h-12.84v-2.26Zm7.64-.96-.68-2.31.74-.04q.59-2.29 2.03-3.62 1.45-1.32 3.83-1.32.59 0 1.07.09.47.1.84.23l.18 2.9q-.46-.15-1.02-.24-.57-.09-1.25-.09-2.04 0-3.55 1.13-1.5 1.13-2.19 3.27m.15-1.46v12.51h-3v-18.06h2.93l-.15 5.33Zm16.45 12.9q-2.19 0-3.81-.47-1.63-.47-2.71-1.03l-.27-2.77q1.35.7 2.97 1.22 1.61.52 3.67.52 2.09 0 3.14-.67 1.06-.66 1.06-1.98v-.2q0-.85-.4-1.41-.4-.55-1.43-.98-1.04-.42-2.95-.85-2.27-.5-3.58-1.17-1.32-.68-1.88-1.68-.57-1-.57-2.44v-.17q0-2.36 1.65-3.58 1.65-1.23 4.96-1.23 2.13 0 3.69.49 1.56.48 2.56 1.07l.28 2.53q-1.2-.7-2.76-1.16-1.55-.47-3.49-.47-1.41 0-2.28.29t-1.26.82q-.39.52-.39 1.26v.15q0 .81.39 1.38.39.56 1.4.98t2.8.8q2.31.47 3.67 1.11 1.36.65 1.96 1.64.59.99.59 2.55v.31q0 2.55-1.78 3.85-1.77 1.29-5.23 1.29m18.27.01q-4.13 0-6.22-2.01-2.09-2.02-2.09-5.78v-3.21q0-3.82 1.94-5.88t5.68-2.06q2.52 0 4.2.93 1.68.94 2.54 2.66.85 1.72.85 4.1v.67q0 .59-.05 1.18-.05.6-.12 1.17h-2.76q.04-.89.05-1.68.01-.8.01-1.46 0-1.65-.53-2.79t-1.57-1.74q-1.05-.6-2.62-.6-2.33 0-3.5 1.35-1.16 1.35-1.16 3.87v1.72l.02.37v1.72q0 1.13.33 2.03.33.91 1.05 1.57.71.65 1.81 1 1.1.34 2.62.34 1.75 0 3.27-.46 1.52-.47 2.85-1.26l-.28 2.59q-1.2.76-2.79 1.21t-3.53.45m6.1-10.49v2.26h-12.84v-2.26Zm6.26-7.97 4.92 15.26h1.72l-1.57.69 5.4-15.95h3.09l-8.49 24.42h-3.03l2.85-8.25 1.31 1.15h-3.4l-5.91-17.32Zm17.89 18.41q-.96 0-1.41-.53-.46-.53-.46-1.49v-.18q0-.95.46-1.47.45-.51 1.41-.51.95 0 1.41.51.46.52.46 1.47v.18q0 .96-.46 1.49t-1.41.53"/></g><path fill="transparent" stroke="transparent" stroke-width="1.799" d="M250 475.72h1000v548.56H250z"/></g></svg>